<svg id="iro" xmlns="http://www.w3.org/2000/svg" viewBox="0 0 1024 1024">
<defs><style>.cls-1{fill:#064071;}</style></defs>

<g id="atama1">
<path class="cls-1" d="M485.46,130.66c22,0,35.12,15.39,29.15,34.22l-7.05,16.67a431.66,431.66,0,0,1-92.78,137.68A431.62,431.62,0,0,1,277.09,412c-45.62,19.29-103.3,27.64-103.3,27.64C152,442.82,134.2,427.4,134.2,405.4V264.61c0-22,16.91-46.18,37.58-53.72l85.8-52.33c15.76-15.35,46.65-27.9,68.65-27.9Z"/>
</g>

<g id="atama2">
<path class="cls-1" d="M604.86,333.53c-16.5.32-26.82-4.77-23-11.32s-6.46-11.89-23-11.89H453.44c-16.5,0-24.86-12.49-18.57-27.74L477.35,179.5c6.29-15.25,24.93-27.73,41.43-27.73H802.35a30.09,30.09,0,0,1,30,30v92.61c0,16.5-3.35,35.63-7.44,42.52S804,329.68,787.48,330Z"/>
</g>

<g id="body">
<path class="cls-1" d="M889.7,729.5c-.1-42.9-35.22-76-78.05-73.5L452.44,676.74c-42.83,2.48-77.89-3.38-77.91-13s35.06-17.43,78-17.33l330.06.78a77.81,77.81,0,0,0,77.83-77.82L860,399.6c-.09-42.9-35.27-78.08-78.17-78.18l-543-1.27A77.81,77.81,0,0,0,161,398L162,813.66c.09,42.9,35.27,78.08,78.17,78.18l571.93,1.35a77.79,77.79,0,0,0,77.82-77.82ZM626.62,447.4a50.19,50.19,0,1,1-50.19,50.18A50.18,50.18,0,0,1,626.62,447.4ZM360.1,498.74a44.11,44.11,0,1,1,44.1,44.11A44.1,44.1,0,0,1,360.1,498.74Z"/>
</g>

</svg>