<svg id="kosh" data-name="kosh" xmlns="http://www.w3.org/2000/svg" viewBox="0 0 1024 1024"><g id="_2" data-name="2"><rect x="122.06" y="143.4" width="643.32" height="55.32" rx="27.66" transform="translate(-9.84 28.12) rotate(-3.59)"/></g><g id="_1" data-name="1"><path d="M562.2,262.87A158.69,158.69,0,1,0,720.88,421.55,158.68,158.68,0,0,0,562.2,262.87Zm0,261.69a103,103,0,1,1,103-103A103,103,0,0,1,562.2,524.56Z"/></g><g id="_2-2" data-name="2"><rect x="128.43" y="255.37" width="275.8" height="55.32" rx="27.66" transform="translate(-107.18 390.42) rotate(-62.78)"/></g><g id="_2-3" data-name="2"><rect x="382.51" y="99.85" width="55.32" height="275.8" rx="27.66" transform="translate(11.15 493.76) rotate(-62.78)"/></g><g id="_4" data-name="4"><path d="M688.61,629.23a158.74,158.74,0,0,0-269.18-10.49L465.53,650a103,103,0,1,1-4.24,108.85l-48.37,27.6A158.69,158.69,0,0,0,688.61,629.23Z"/></g><g id="_4-2" data-name="4"><path d="M197.13,629.53a158.74,158.74,0,0,0,268.65,20l-45-32.88A103,103,0,1,1,428.88,508l49.32-25.88A158.69,158.69,0,0,0,197.13,629.53Z"/></g><g id="_5" data-name="5"><circle cx="820.74" cy="826.54" r="27.98"/></g><circle id="_8" data-name="8" cx="437.85" cy="774.14" r="27.98"/></svg>