<svg id="sakana" xmlns="http://www.w3.org/2000/svg" viewBox="0 0 1024 1024">
<defs><style>.cls-1{fill:#003068;}</style></defs>

<g id="maegami">
<path class="cls-1" d="M393.62,127.92c-49.5,0-108.84,21.84-131.87,48.54S152.89,265.49,152.89,315v10.18c0,49.5,17.15,89.32,38.12,88.49l18.65-3,26.83-4.31c28.37-9.81,49.91-20.9,47.87-24.65v-4.15a17,17,0,0,1,5.11-12.42l3.41-3.4A115.35,115.35,0,0,1,310.65,360c4.82,0,9.51-.24,10.41-.55s1.64-12.92,1.64-25.37,0-23.36.05-24.25l.08-.77a20.35,20.35,0,0,1,5.9-12.23l4-4.13a110.8,110.8,0,0,1,14.06-2.08c2,0,4.69.05,5.95.1l1.1.18a21.47,21.47,0,0,1,17.28,18.16l.09.77c0,.89,0,8.09,0,16s9.11,6.9,20.24-2.28l9.47-9.23c1.15-1.11,2.28-2.23,3.42-3.36.63-.64,1.26-1.27,1.88-1.91a355.37,355.37,0,0,0,88-149.41l3.08-10.46c2.57-11.71-35.83-21.29-85.33-21.29Z"/>
</g>

<g id="ten4">
<circle class="cls-1" cx="262.73" cy="766.06" r="90.79"/>
</g>

<g id="ten3">
<circle class="cls-1" cx="461.73" cy="766.06" r="83.21"/>
</g>

<g id="ten2">
<circle class="cls-1" cx="596.69" cy="747.91" r="72.63"/>
</g>

<g id="ten1">
<circle class="cls-1" cx="738.84" cy="766.06" r="84.58"/>
</g>

<g id="uhirogami">
<path class="cls-1" d="M718.38,159.67c42.9,0,78,30.62,78,68s-5,74-11,81.21-13.1,15.6-15.6,18.59-26.88,5.42-54.17,5.42-49.62-4.83-49.62-10.73,0-11.46,0-12.35l-.09-.77a20.15,20.15,0,0,0-6.07-12.23l-4.14-4.13a112.08,112.08,0,0,0-14.12-2.08,110.55,110.55,0,0,0-14.06,2.08l-4,4.13a20.28,20.28,0,0,0-5.89,12.23l-.09.77c0,.89,0,6.44,0,12.35s-34.09,10.73-75.74,10.73-71.73-4.18-66.82-9.29-16.39-9.29-47.32-9.29-56.23-.65-56.23-1.45,0-2.16,0-3l-.09-.77a20,20,0,0,0-6.07-12.23l-3.28-3.27c-4.36-1.46,6.73-32.19,24.65-68.29S454.12,159.67,497,159.67Z"/>
</g>

<g id="face">
<path class="cls-1" d="M774.29,322.08a83.48,83.48,0,0,0-44.89-13H665.81a20.47,20.47,0,0,1,.13,2.38v45.28q0,3.28,3.29,3.28h41.63a17.54,17.54,0,0,1,12.59,5.11,16.66,16.66,0,0,1,5.3,12.42,18.08,18.08,0,0,1-17.89,17.89H669.23c-2.19,0-3.29,1-3.29,2.92v73.76q0,23.75,5.11,30.68t21.18,6.93a85.14,85.14,0,0,0,13.15-.73,17.93,17.93,0,0,1,12.78,3.29,12.88,12.88,0,0,1,5.48,11,22,22,0,0,1-5.3,14.43,18.65,18.65,0,0,1-13,7.12q-16.07,1.46-24.1,1.46-35.41,0-49.66-15.16t-14.24-54.22V398.36c0-1.94-1.1-2.92-3.29-2.92H596.56a16.61,16.61,0,0,1-12.41-5.29,17.47,17.47,0,0,1-5.11-12.6A17.45,17.45,0,0,1,596.56,360h17.53q3.28,0,3.29-3.28V311.46a20.47,20.47,0,0,1,.13-2.38H371.13a20.43,20.43,0,0,1,.14,2.38v45.28q0,3.28,3.28,3.28h41.63a17.55,17.55,0,0,1,12.6,5.11,16.65,16.65,0,0,1,5.29,12.42,18.06,18.06,0,0,1-17.89,17.89H374.55c-2.19,0-3.28,1-3.28,2.92v73.76q0,23.75,5.11,30.68t21.18,6.93A85.08,85.08,0,0,0,410.7,509a17.93,17.93,0,0,1,12.78,3.29,12.86,12.86,0,0,1,5.48,11,22,22,0,0,1-5.29,14.43,18.65,18.65,0,0,1-13,7.12q-16.06,1.46-24.1,1.46-35.42,0-49.66-15.16T322.7,476.87V398.36c0-1.94-1.09-2.92-3.28-2.92H301.89a16.62,16.62,0,0,1-12.42-5.29,18.94,18.94,0,0,1-1.4-1.63,17.28,17.28,0,0,1-3.71-11A17.45,17.45,0,0,1,301.89,360h17.53q3.29,0,3.28-3.28V311.46a22.94,22.94,0,0,1,.13-2.38H293.6A83.94,83.94,0,0,0,209.66,393V578.77a83.94,83.94,0,0,0,83.94,83.94H729.4a83.94,83.94,0,0,0,83.94-83.94V393A83.85,83.85,0,0,0,774.29,322.08ZM575,607.14a6.82,6.82,0,0,1-6.37,3.64h-7.28a21,21,0,0,1-18.88-11.37l-16.6-31.85a.2.2,0,0,0-.23-.22c-.15,0-.23.07-.23.22l-16.61,31.85a20.55,20.55,0,0,1-7.85,8.3,21.1,21.1,0,0,1-11,3.07h-6.36a6.79,6.79,0,0,1-6.37-3.64,6.68,6.68,0,0,1,.23-7.28l29.11-47.76a2.52,2.52,0,0,0,0-3.19l-28-45.49a6.7,6.7,0,0,1-.23-7.28,6.83,6.83,0,0,1,6.38-3.64H492a21,21,0,0,1,11,3.08,20.6,20.6,0,0,1,7.84,8.3l15.47,29.79c0,.16.07.23.22.23s.23-.07.23-.23l15.47-29.79a21.07,21.07,0,0,1,18.88-11.38h6.37a6.8,6.8,0,0,1,6.36,3.64,6.66,6.66,0,0,1-.22,7.28l-28,45.49a2.52,2.52,0,0,0,0,3.19l29.12,47.76A6.7,6.7,0,0,1,575,607.14Z"/>
</g>

</svg>